<mxfile host="app.diagrams.net" modified="2022-10-10T06:42:09.443Z" agent="5.0 (Windows NT 10.0; Win64; x64) AppleWebKit/537.36 (KHTML, like Gecko) Chrome/106.0.0.0 Safari/537.36" etag="dr8bqPngfxDLdXEtVKXF" version="20.3.2" type="github">
  <diagram id="wFE0QG_FPsp0jaGvCLVb" name="Page-1">
    <mxGraphModel dx="1422" dy="715" grid="1" gridSize="10" guides="1" tooltips="1" connect="1" arrows="1" fold="1" page="1" pageScale="1" pageWidth="850" pageHeight="1100" math="0" shadow="0">
      <root>
        <mxCell id="0" />
        <mxCell id="1" parent="0" />
        <mxCell id="_5mSTuPxr-ZiKRkBDSY7-1" value="" style="swimlane;fontStyle=2;childLayout=stackLayout;horizontal=1;startSize=28;horizontalStack=1;resizeParent=1;resizeParentMax=0;resizeLast=0;collapsible=0;marginBottom=0;swimlaneFillColor=none;fontFamily=Permanent Marker;fontSize=16;points=[];verticalAlign=top;stackBorder=0;resizable=1;strokeWidth=2;sketch=1;disableMultiStroke=1;" parent="1" vertex="1">
          <mxGeometry x="40" y="40" width="540" height="880" as="geometry" />
        </mxCell>
        <object label="TO DO" status="New" id="_5mSTuPxr-ZiKRkBDSY7-2">
          <mxCell style="swimlane;strokeWidth=2;fontFamily=Permanent Marker;html=0;startSize=1;verticalAlign=bottom;spacingBottom=5;points=[];childLayout=stackLayout;stackBorder=20;stackSpacing=20;resizeLast=0;resizeParent=1;horizontalStack=0;collapsible=0;sketch=1;strokeColor=none;fillStyle=solid;fillColor=#A0522D;" parent="_5mSTuPxr-ZiKRkBDSY7-1" vertex="1">
            <mxGeometry y="28" width="180" height="852" as="geometry" />
          </mxCell>
        </object>
        <object label="Знакомство с веб-технологиями лекции&lt;br&gt;&lt;span style=&quot;font-weight: normal&quot;&gt;&lt;i&gt;&lt;font style=&quot;font-size: 10px&quot;&gt;%status%&lt;/font&gt;&lt;/i&gt;&lt;/span&gt;" placeholders="1" id="_5mSTuPxr-ZiKRkBDSY7-3">
          <mxCell style="whiteSpace=wrap;html=1;strokeWidth=2;fillColor=#ffe6cc;fontStyle=1;spacingTop=0;rounded=1;arcSize=9;points=[];sketch=1;fontFamily=Permanent Marker;hachureGap=8;fillWeight=1;opacity=40;strokeColor=#d79b00;" parent="_5mSTuPxr-ZiKRkBDSY7-2" vertex="1">
            <mxGeometry x="20" y="21" width="140" height="80" as="geometry" />
          </mxCell>
        </object>
        <object label="&lt;font style=&quot;&quot;&gt;Знакомство с веб-технологиями семинары&amp;nbsp;&lt;/font&gt;&lt;font style=&quot;font-weight: normal; font-style: italic; font-size: 10px;&quot;&gt;%status%&lt;/font&gt;" placeholders="1" id="_5mSTuPxr-ZiKRkBDSY7-4">
          <mxCell style="whiteSpace=wrap;html=1;strokeWidth=2;fillColor=#ffe6cc;fontStyle=1;spacingTop=0;rounded=1;arcSize=9;points=[];sketch=1;fontFamily=Permanent Marker;hachureGap=8;fillWeight=1;opacity=40;strokeColor=#d79b00;" parent="_5mSTuPxr-ZiKRkBDSY7-2" vertex="1">
            <mxGeometry x="20" y="121" width="140" height="80" as="geometry" />
          </mxCell>
        </object>
        <mxCell id="I806vyS2jXzKkOi91SJ9-3" value="" style="endArrow=none;dashed=1;html=1;rounded=0;" edge="1" parent="_5mSTuPxr-ZiKRkBDSY7-2">
          <mxGeometry width="50" height="50" relative="1" as="geometry">
            <mxPoint y="212" as="sourcePoint" />
            <mxPoint x="540" y="212" as="targetPoint" />
          </mxGeometry>
        </mxCell>
        <object label="Дипломный проект&lt;br&gt;План работы&lt;br&gt;&lt;span style=&quot;font-weight: normal&quot;&gt;&lt;i&gt;&lt;font style=&quot;font-size: 10px&quot;&gt;%status%&lt;/font&gt;&lt;/i&gt;&lt;/span&gt;" placeholders="1" id="_5mSTuPxr-ZiKRkBDSY7-11">
          <mxCell style="whiteSpace=wrap;html=1;strokeWidth=2;fillColor=#fff2cc;fontStyle=1;spacingTop=0;rounded=1;arcSize=9;points=[];sketch=1;fontFamily=Permanent Marker;hachureGap=8;fillWeight=1;opacity=40;strokeColor=#d6b656;" parent="_5mSTuPxr-ZiKRkBDSY7-2" vertex="1">
            <mxGeometry x="20" y="221" width="140" height="80" as="geometry" />
          </mxCell>
        </object>
        <object label="Дипломный проект&lt;br&gt;Формирование стэка программ&lt;br&gt;&lt;span style=&quot;font-weight: normal&quot;&gt;&lt;i&gt;&lt;font style=&quot;font-size: 10px&quot;&gt;%status%&lt;/font&gt;&lt;/i&gt;&lt;/span&gt;" placeholders="1" id="I806vyS2jXzKkOi91SJ9-14">
          <mxCell style="whiteSpace=wrap;html=1;strokeWidth=2;fillColor=#fff2cc;fontStyle=1;spacingTop=0;rounded=1;arcSize=9;points=[];sketch=1;fontFamily=Permanent Marker;hachureGap=8;fillWeight=1;opacity=40;strokeColor=#d6b656;" vertex="1" parent="_5mSTuPxr-ZiKRkBDSY7-2">
            <mxGeometry x="20" y="321" width="140" height="80" as="geometry" />
          </mxCell>
        </object>
        <object label="Дипломный проект&lt;br&gt;Проработка схем&lt;br&gt;&lt;span style=&quot;font-weight: normal&quot;&gt;&lt;i&gt;&lt;font style=&quot;font-size: 10px&quot;&gt;%status%&lt;/font&gt;&lt;/i&gt;&lt;/span&gt;" placeholders="1" id="I806vyS2jXzKkOi91SJ9-16">
          <mxCell style="whiteSpace=wrap;html=1;strokeWidth=2;fillColor=#fff2cc;fontStyle=1;spacingTop=0;rounded=1;arcSize=9;points=[];sketch=1;fontFamily=Permanent Marker;hachureGap=8;fillWeight=1;opacity=40;strokeColor=#d6b656;" vertex="1" parent="_5mSTuPxr-ZiKRkBDSY7-2">
            <mxGeometry x="20" y="421" width="140" height="80" as="geometry" />
          </mxCell>
        </object>
        <object label="DOING (5)" status="In progress" id="_5mSTuPxr-ZiKRkBDSY7-6">
          <mxCell style="swimlane;strokeWidth=2;fontFamily=Permanent Marker;html=0;startSize=1;verticalAlign=bottom;spacingBottom=5;points=[];childLayout=stackLayout;stackBorder=20;stackSpacing=20;resizeLast=0;resizeParent=1;horizontalStack=0;collapsible=0;sketch=1;strokeColor=none;fillStyle=solid;fillColor=#006600;" parent="_5mSTuPxr-ZiKRkBDSY7-1" vertex="1">
            <mxGeometry x="180" y="28" width="180" height="852" as="geometry" />
          </mxCell>
        </object>
        <mxCell id="I806vyS2jXzKkOi91SJ9-2" value="" style="endArrow=none;dashed=1;html=1;rounded=0;" edge="1" parent="_5mSTuPxr-ZiKRkBDSY7-6">
          <mxGeometry width="50" height="50" relative="1" as="geometry">
            <mxPoint x="-180" y="12" as="sourcePoint" />
            <mxPoint x="360" y="12" as="targetPoint" />
          </mxGeometry>
        </mxCell>
        <object label="Гибкие методологии лекции&lt;br&gt;&lt;span style=&quot;font-weight: normal&quot;&gt;&lt;i&gt;&lt;font style=&quot;font-size: 10px&quot;&gt;%status%&lt;/font&gt;&lt;/i&gt;&lt;/span&gt;" placeholders="1" id="_5mSTuPxr-ZiKRkBDSY7-7">
          <mxCell style="whiteSpace=wrap;html=1;strokeWidth=2;fillColor=#ffe6cc;fontStyle=1;spacingTop=0;rounded=1;arcSize=9;points=[];sketch=1;fontFamily=Permanent Marker;hachureGap=8;fillWeight=1;opacity=40;strokeColor=#d79b00;" parent="_5mSTuPxr-ZiKRkBDSY7-6" vertex="1">
            <mxGeometry x="20" y="21" width="140" height="80" as="geometry" />
          </mxCell>
        </object>
        <object label="Гибкие методологии семинары&lt;br&gt;&lt;span style=&quot;font-weight: normal&quot;&gt;&lt;i&gt;&lt;font style=&quot;font-size: 10px&quot;&gt;%status%&lt;/font&gt;&lt;/i&gt;&lt;/span&gt;" placeholders="1" id="_5mSTuPxr-ZiKRkBDSY7-8">
          <mxCell style="whiteSpace=wrap;html=1;strokeWidth=2;fillColor=#ffe6cc;fontStyle=1;spacingTop=0;rounded=1;arcSize=9;points=[];sketch=1;fontFamily=Permanent Marker;hachureGap=8;fillWeight=1;opacity=40;strokeColor=#d79b00;" parent="_5mSTuPxr-ZiKRkBDSY7-6" vertex="1">
            <mxGeometry x="20" y="121" width="140" height="80" as="geometry" />
          </mxCell>
        </object>
        <object label="Дипломный проект&lt;br&gt;Проработка идеи&lt;br&gt;&lt;span style=&quot;font-weight: normal&quot;&gt;&lt;i&gt;&lt;font style=&quot;font-size: 10px&quot;&gt;%status%&lt;/font&gt;&lt;/i&gt;&lt;/span&gt;" placeholders="1" id="_5mSTuPxr-ZiKRkBDSY7-5">
          <mxCell style="whiteSpace=wrap;html=1;strokeWidth=2;fillColor=#fff2cc;fontStyle=1;spacingTop=0;rounded=1;arcSize=9;points=[];sketch=1;fontFamily=Permanent Marker;hachureGap=8;fillWeight=1;opacity=40;strokeColor=#d6b656;" parent="_5mSTuPxr-ZiKRkBDSY7-6" vertex="1">
            <mxGeometry x="20" y="221" width="140" height="80" as="geometry" />
          </mxCell>
        </object>
        <object label="empty&lt;br&gt;&lt;span style=&quot;font-weight: normal&quot;&gt;&lt;i&gt;&lt;font style=&quot;font-size: 10px&quot;&gt;%status%&lt;/font&gt;&lt;/i&gt;&lt;/span&gt;" placeholders="1" id="I806vyS2jXzKkOi91SJ9-13">
          <mxCell style="whiteSpace=wrap;html=1;strokeWidth=2;fillColor=#fff2cc;fontStyle=1;spacingTop=0;rounded=1;arcSize=9;points=[];sketch=1;fontFamily=Permanent Marker;hachureGap=8;fillWeight=1;opacity=40;strokeColor=#d6b656;" vertex="1" parent="_5mSTuPxr-ZiKRkBDSY7-6">
            <mxGeometry x="20" y="321" width="140" height="80" as="geometry" />
          </mxCell>
        </object>
        <object label="empty&lt;br&gt;&lt;span style=&quot;font-weight: normal&quot;&gt;&lt;i&gt;&lt;font style=&quot;font-size: 10px&quot;&gt;%status%&lt;/font&gt;&lt;/i&gt;&lt;/span&gt;" placeholders="1" id="I806vyS2jXzKkOi91SJ9-15">
          <mxCell style="whiteSpace=wrap;html=1;strokeWidth=2;fillColor=#fff2cc;fontStyle=1;spacingTop=0;rounded=1;arcSize=9;points=[];sketch=1;fontFamily=Permanent Marker;hachureGap=8;fillWeight=1;opacity=40;strokeColor=#d6b656;" vertex="1" parent="_5mSTuPxr-ZiKRkBDSY7-6">
            <mxGeometry x="20" y="421" width="140" height="80" as="geometry" />
          </mxCell>
        </object>
        <object label="Просмотр GeekSpeak_Разработчик&lt;br&gt;&lt;span style=&quot;font-weight: normal&quot;&gt;&lt;i&gt;&lt;font style=&quot;font-size: 10px&quot;&gt;%status%&lt;/font&gt;&lt;/i&gt;&lt;/span&gt;" placeholders="1" id="_5mSTuPxr-ZiKRkBDSY7-10">
          <mxCell style="whiteSpace=wrap;html=1;strokeWidth=2;fillColor=#d5e8d4;fontStyle=1;spacingTop=0;rounded=1;arcSize=9;points=[];sketch=1;fontFamily=Permanent Marker;hachureGap=8;fillWeight=1;opacity=40;strokeColor=#82b366;" parent="_5mSTuPxr-ZiKRkBDSY7-6" vertex="1">
            <mxGeometry x="20" y="521" width="140" height="80" as="geometry" />
          </mxCell>
        </object>
        <object label="Просмотр&amp;nbsp;&lt;br&gt;IT-команда&lt;br&gt;&lt;span style=&quot;font-weight: normal&quot;&gt;&lt;i&gt;&lt;font style=&quot;font-size: 10px&quot;&gt;%status%&lt;/font&gt;&lt;/i&gt;&lt;/span&gt;" placeholders="1" id="I806vyS2jXzKkOi91SJ9-12">
          <mxCell style="whiteSpace=wrap;html=1;strokeWidth=2;fillColor=#d5e8d4;fontStyle=1;spacingTop=0;rounded=1;arcSize=9;points=[];sketch=1;fontFamily=Permanent Marker;hachureGap=8;fillWeight=1;opacity=40;strokeColor=#82b366;" vertex="1" parent="_5mSTuPxr-ZiKRkBDSY7-6">
            <mxGeometry x="20" y="621" width="140" height="80" as="geometry" />
          </mxCell>
        </object>
        <object label="DONE" status="Completed" id="_5mSTuPxr-ZiKRkBDSY7-9">
          <mxCell style="swimlane;strokeWidth=2;fontFamily=Permanent Marker;html=0;startSize=1;verticalAlign=bottom;spacingBottom=5;points=[];childLayout=stackLayout;stackBorder=20;stackSpacing=20;resizeLast=0;resizeParent=1;horizontalStack=0;collapsible=0;sketch=1;strokeColor=none;fillStyle=solid;fillColor=#1BA1E2;" parent="_5mSTuPxr-ZiKRkBDSY7-1" vertex="1">
            <mxGeometry x="360" y="28" width="180" height="852" as="geometry" />
          </mxCell>
        </object>
        <mxCell id="I806vyS2jXzKkOi91SJ9-4" value="" style="endArrow=none;dashed=1;html=1;rounded=0;" edge="1" parent="_5mSTuPxr-ZiKRkBDSY7-9">
          <mxGeometry width="50" height="50" relative="1" as="geometry">
            <mxPoint x="-360" y="512" as="sourcePoint" />
            <mxPoint x="180" y="512" as="targetPoint" />
          </mxGeometry>
        </mxCell>
        <object label="Срочная Задача&lt;br&gt;(с фиксированной датой)&lt;br&gt;&lt;span style=&quot;font-weight: normal&quot;&gt;&lt;i&gt;&lt;font style=&quot;font-size: 10px&quot;&gt;%status%&lt;/font&gt;&lt;/i&gt;&lt;/span&gt;" placeholders="1" id="I806vyS2jXzKkOi91SJ9-8">
          <mxCell style="whiteSpace=wrap;html=1;strokeWidth=2;fillColor=#ffe6cc;fontStyle=1;spacingTop=0;rounded=1;arcSize=9;points=[];sketch=1;fontFamily=Permanent Marker;hachureGap=8;fillWeight=1;opacity=40;strokeColor=#d79b00;" vertex="1" parent="1">
            <mxGeometry x="610" y="140" width="140" height="80" as="geometry" />
          </mxCell>
        </object>
        <object label="Аварийная Задача (ускоренный класс)&lt;br&gt;&lt;span style=&quot;font-weight: normal&quot;&gt;&lt;i&gt;&lt;font style=&quot;font-size: 10px&quot;&gt;%status%&lt;/font&gt;&lt;/i&gt;&lt;/span&gt;" placeholders="1" id="I806vyS2jXzKkOi91SJ9-9">
          <mxCell style="whiteSpace=wrap;html=1;strokeWidth=2;fillColor=#f8cecc;fontStyle=1;spacingTop=0;rounded=1;arcSize=9;points=[];sketch=1;fontFamily=Permanent Marker;hachureGap=8;fillWeight=1;opacity=40;strokeColor=#b85450;" vertex="1" parent="1">
            <mxGeometry x="610" y="40" width="140" height="80" as="geometry" />
          </mxCell>
        </object>
        <object label="Задача&lt;br&gt;(стандартный класс)&lt;br&gt;&lt;span style=&quot;font-weight: normal&quot;&gt;&lt;i&gt;&lt;font style=&quot;font-size: 10px&quot;&gt;%status%&lt;/font&gt;&lt;/i&gt;&lt;/span&gt;" placeholders="1" id="I806vyS2jXzKkOi91SJ9-10">
          <mxCell style="whiteSpace=wrap;html=1;strokeWidth=2;fillColor=#fff2cc;fontStyle=1;spacingTop=0;rounded=1;arcSize=9;points=[];sketch=1;fontFamily=Permanent Marker;hachureGap=8;fillWeight=1;opacity=40;strokeColor=#d6b656;" vertex="1" parent="1">
            <mxGeometry x="610" y="300" width="140" height="80" as="geometry" />
          </mxCell>
        </object>
        <object label="Задача&lt;br&gt;(нематериальный класс)&lt;br&gt;&lt;span style=&quot;font-weight: normal&quot;&gt;&lt;i&gt;&lt;font style=&quot;font-size: 10px&quot;&gt;%status%&lt;/font&gt;&lt;/i&gt;&lt;/span&gt;" placeholders="1" id="I806vyS2jXzKkOi91SJ9-11">
          <mxCell style="whiteSpace=wrap;html=1;strokeWidth=2;fillColor=#d5e8d4;fontStyle=1;spacingTop=0;rounded=1;arcSize=9;points=[];sketch=1;fontFamily=Permanent Marker;hachureGap=8;fillWeight=1;opacity=40;strokeColor=#82b366;" vertex="1" parent="1">
            <mxGeometry x="610" y="600" width="140" height="80" as="geometry" />
          </mxCell>
        </object>
      </root>
    </mxGraphModel>
  </diagram>
</mxfile>
